<?xml version="1.0" encoding="UTF-8"?>
<svg id="Layer_1" data-name="Layer 1" xmlns="http://www.w3.org/2000/svg" xmlns:xlink="http://www.w3.org/1999/xlink" viewBox="0 0 1079.34 217.01">
  <defs>
    <style>
      .cls-1 {
        fill: none;
      }

      .cls-2 {
        font-family: HelveticaNeue, 'Helvetica Neue';
        font-size: 40.67px;
      }

      .cls-2, .cls-3 {
        fill: #f9f9ff;
      }

      .cls-4 {
        isolation: isolate;
      }

      .cls-5 {
        clip-path: url(#clippath-1);
      }

      .cls-6 {
        clip-path: url(#clippath-2);
      }

      .cls-7 {
        clip-path: url(#clippath);
      }
    </style>
    <clipPath id="clippath">
      <rect class="cls-1" x="4.33" y="5.5" width="1070.68" height="206.01"/>
    </clipPath>
    <clipPath id="clippath-1">
      <rect class="cls-1" x="4.33" y="5.5" width="1070.68" height="206.01"/>
    </clipPath>
    <clipPath id="clippath-2">
      <rect class="cls-1" x="992.62" y=".54" width="32.54" height="54.41"/>
    </clipPath>
  </defs>
  <g id="Wordmark-offwhite">
    <g class="cls-7">
      <g class="cls-5">
        <path class="cls-3" d="M734.68,211.5h334.93c2.98,0,5.4-2.43,5.4-5.41v-45.66c0-2.98-2.42-5.39-5.4-5.39h-87.98c-2.98,0-5.4-2.41-5.4-5.39V14.61c0-2.98-2.42-5.39-5.41-5.39H397.19c-2.98,0-5.4,2.41-5.4,5.39v30.1c0,1.16-1.63,1.47-2.02.36-10.67-29.84-46.14-35.86-94.03-35.86h-92.4c-2.98,0-5.4,2.41-5.4,5.39v34.35c0,1.15-1.58,1.44-2.01.38-12.77-31.67-47.3-40.12-92.55-40.12H9.73c-2.98,0-5.4,2.41-5.4,5.39v191.49c0,2.98,2.42,5.39,5.4,5.39h59.33c2.98,0,5.4-2.41,5.4-5.39v-47.62c0-2.98,2.42-5.39,5.4-5.39h25.03c44.95,0,78.5-8.47,91.04-39.81.43-1.08,2.01-.78,2.01.38v92.45c0,2.98,2.42,5.39,5.4,5.39h59.33c2.98,0,5.4-2.4,5.4-5.38v-59.26c0-.58.47-1.05,1.05-1.05h20.54c22.14,0,28.08,4.76,30.03,27.46l1.93,21.58c.42,4.76.97,8.67,1.96,12.53.62,2.41,2.75,4.14,5.25,4.14h229.5c2.98,0,5.41-2.41,5.41-5.39v-45.66c0-2.98-2.42-5.39-5.41-5.39h-93.67c-1.48,0-2.7-1.21-2.7-2.7v-11.01c0-1.48,1.22-2.7,2.7-2.7h80.29c2.98,0,5.4-2.41,5.4-5.39v-45.66c0-2.98-2.42-5.39-5.4-5.39h-80.29c-1.48,0-2.7-1.21-2.7-2.7v-11.14c0-1.48,1.22-2.7,2.7-2.7h141.48c2.98,0,5.41,2.41,5.41,5.39v135.04c0,2.98,2.42,5.39,5.4,5.39h59.33c2.98,0,5.41-2.41,5.41-5.39V71.07c0-2.98,2.42-5.39,5.4-5.39h121.66c4.82,0,7.22,5.83,3.81,9.22l-80.08,79.5c-2.04,2.02-3.18,4.77-3.18,7.65v44.06c0,2.98,2.42,5.39,5.4,5.39h-.02ZM128.41,81.21c0,13.03-8.17,16.8-25.32,16.8h-27.29c-.74,0-1.35-.61-1.35-1.35v-31.06c0-.74.61-1.35,1.35-1.35h27.29c17.16,0,25.32,3.79,25.32,16.67v.28h0ZM320.64,79.39c0,12.48-8.03,17.79-25.18,17.79h-26.04c-.74,0-1.35-.61-1.35-1.35v-33.16c0-.74.61-1.35,1.35-1.35h26.04c17.16,0,25.18,5.33,25.18,17.79v.28ZM387.7,161.37c0-17.53-9.45-35.12-26.68-42.44-.86-.36-.85-1.58.04-1.92,11.62-4.37,23.2-14.11,28.72-29.86.38-1.11,2.02-.84,2.02.34v81.46c0,2.59-3.89,2.71-4.02.12-.11-2.33-.09-4.87-.09-7.7h.01ZM903.4,155.04h-82.36c-2.42,0-3.62-2.91-1.9-4.61l82.36-81.67c1.7-1.69,4.6-.49,4.6,1.92v81.67c0,1.48-1.22,2.7-2.7,2.7h0Z"/>
        <g class="cls-4">
          <g class="cls-6">
            <text class="cls-2" transform="translate(992.63 35.39)"><tspan x="0" y="0">®</tspan></text>
          </g>
        </g>
      </g>
    </g>
  </g>
</svg>